<svg xmlns="http://www.w3.org/2000/svg" viewBox="0 0 32 32">
  <circle cx="16" cy="16" r="16" fill="#0a0a23"/>
  <path d="M16 16 L16 4 A12 12 0 0 1 26.39 10 Z" fill="#ff4d4d"/>
  <path d="M16 16 L26.39 10 A12 12 0 0 1 26.39 22 Z" fill="#ff9a00"/>
  <path d="M16 16 L26.39 22 A12 12 0 0 1 16 28 Z" fill="#f5e642"/>
  <path d="M16 16 L16 28 A12 12 0 0 1 5.61 22 Z" fill="#4ddb6e"/>
  <path d="M16 16 L5.61 22 A12 12 0 0 1 5.61 10 Z" fill="#4d9fff"/>
  <path d="M16 16 L5.61 10 A12 12 0 0 1 16 4 Z" fill="#b44dff"/>
  <circle cx="16" cy="16" r="5" fill="#0a0a23"/>
</svg>
